<svg xmlns="http://www.w3.org/2000/svg" version="1.1" xmlns:xlink="http://www.w3.org/1999/xlink" xmlns:svgjs="http://svgjs.com/svgjs" width="512" height="512" x="0" y="0" viewBox="0 0 32 32" style="enable-background:new 0 0 512 512" xml:space="preserve"><g><g fill="#000"><path fill-rule="evenodd" d="M23 22v4.586L27.586 22zm-2-1a1 1 0 0 1 1-1h8a1 1 0 0 1 .707 1.707l-8 8A1 1 0 0 1 21 29z" clip-rule="evenodd" fill="#5058dd" data-original="#000000"></path><path d="M19 5v2h8V5zM11 10V8h16v2zM11 11v2h16v-2zM9 20.5a1 1 0 1 0-2 0V24a1 1 0 0 0 .293.707l2 2a1 1 0 0 0 1.414-1.414L9 23.586z" fill="#5058dd" data-original="#000000"></path><path fill-rule="evenodd" d="M7 3a3 3 0 0 1 3-3h18a3 3 0 0 1 3 3v18a1 1 0 0 1-.293.707l-8 8A1 1 0 0 1 22 30h-8.708A8 8 0 1 1 7 16.062zm14.586 25H14.93A8.001 8.001 0 0 0 9 16.062V3a1 1 0 0 1 1-1h18a1 1 0 0 1 1 1v17.586zM8 18a6 6 0 1 0 0 12 6 6 0 0 0 0-12z" clip-rule="evenodd" fill="#5058dd" data-original="#000000"></path></g></g></svg>