<?xml version="1.0" encoding="UTF-8"?>
<svg width="270px" height="42px" viewBox="0 0 270 42" version="1.1" xmlns="http://www.w3.org/2000/svg" xmlns:xlink="http://www.w3.org/1999/xlink">
    <!-- Generator: Sketch 57.1 (83088) - https://sketch.com -->
    <title>Asset 2</title>
    <desc>Created with Sketch.</desc>
    <defs>
        <linearGradient x1="14.7916463%" y1="26.4311754%" x2="87.038285%" y2="70.4720396%" id="linearGradient-1">
            <stop stop-color="#8BBCF1" offset="16%"></stop>
            <stop stop-color="#5058DD" offset="63%"></stop>
        </linearGradient>
        <linearGradient x1="64.0112365%" y1="94.0271456%" x2="27.4887454%" y2="-24.9997715%" id="linearGradient-2">
            <stop stop-color="#000000" offset="11%"></stop>
            <stop stop-color="#FFFFFF" stop-opacity="0" offset="56%"></stop>
        </linearGradient>
        <linearGradient x1="28.4983192%" y1="1.97909247%" x2="79.0452053%" y2="113.897553%" id="linearGradient-3">
            <stop stop-color="#000000" offset="23%"></stop>
            <stop stop-color="#FFFFFF" stop-opacity="0" offset="58%"></stop>
        </linearGradient>
        <linearGradient x1="66.1917684%" y1="22.1585482%" x2="31.2151364%" y2="83.5721108%" id="linearGradient-4">
            <stop stop-color="#000000" offset="24%"></stop>
            <stop stop-color="#FFFFFF" stop-opacity="0" offset="74%"></stop>
        </linearGradient>
        <linearGradient x1="22.0684805%" y1="88.9222575%" x2="85.7793713%" y2="-1.49427668%" id="linearGradient-5">
            <stop stop-color="#000000" offset="25%"></stop>
            <stop stop-color="#FFFFFF" stop-opacity="0" offset="63%"></stop>
        </linearGradient>
    </defs>
    <g id="Symbols" stroke="none" stroke-width="1" fill="none" fill-rule="evenodd">
        <g id="header" transform="translate(-858.000000, -39.000000)" fill-rule="nonzero">
            <g id="Asset-2" transform="translate(858.000000, 39.000000)">
                <path d="M224.798127,22.7489028 C223.28982,28.1765738 221.819221,33.4569825 221.377502,34.9716814 C221.099099,36.0045113 220.30452,36.8297686 219.265872,37.1648392 C218.080774,37.5277358 216.744845,37.1648392 215.495105,36.1813368 C214.509318,35.3924311 212.376141,31.7529462 209.623481,24.084783 C207.387955,17.8682063 206.073573,12.7508381 206.003544,11.5201453 C205.933516,10.2894524 206.089733,7.83858546 212.230697,7.83858546 C212.769379,7.83858546 214.121468,8.2330383 216.93877,10.8574645 C219.265872,13.0506223 222.05624,16.1904669 225.503799,20.2191452 C225.272166,21.0606446 225.035147,21.9074034 224.798127,22.7489028 Z M259.693887,3.94139142 C256.07395,3.94139142 252.260088,7.42309514 245.149498,15.6066767 C244.896318,14.6862867 243.581936,9.53736236 243.533455,9.29543128 L243.032481,7.29687023 C242.429159,5.11423119 241.508014,1.65882433 236.875357,0.580653233 C236.22819,0.39261038 235.561428,0.27617351 234.887624,0.233534735 L234.817595,0.233534735 L229.139896,0.233534735 C229.062785,0.228125237 228.985375,0.228125237 228.908264,0.233534735 L226.958238,0.233534735 C226.15066,0.220964996 225.441743,0.755903792 225.250619,1.52208067 C225.0315,2.27729448 225.372623,3.08053876 226.074801,3.46278864 L226.074801,3.46278864 C226.725695,3.8774119 227.27699,4.42463577 227.690844,5.06689685 C228.35991,6.09406693 228.720132,7.28401759 228.730499,8.50126623 C228.698178,8.68534422 228.671244,8.79579102 228.665857,8.82208787 C228.617376,9.01142524 228.164884,10.6418303 227.507693,13.0295848 C227.286834,13.8184905 227.044427,14.6862867 226.791247,15.6066767 C219.680657,7.42309514 215.866795,3.94665079 212.263018,3.94139142 C208.346807,3.94139142 205.491797,4.85126263 203.784178,6.67626443 C202.565087,8.01822017 201.927696,9.77012178 202.006531,11.5622203 L202.006531,11.6411108 C202.098106,13.8763436 204.058905,20.3927045 205.852713,25.3838477 C208.57844,32.967861 210.975571,37.6224045 212.974077,39.2212533 C215.274246,41.0567738 218.010745,41.6721203 220.515612,40.9095115 C222.84888,40.1787039 224.646227,38.3467214 225.293714,36.0393337 C225.681564,34.6981941 226.872049,30.4381034 228.181044,25.7362256 C228.39113,24.9841355 228.601215,24.2215267 228.811301,23.4589179 C231.084535,25.4101446 233.659431,27.0300309 236.002693,27.0352903 L236.002693,27.0352903 C238.335182,27.0352903 240.920852,25.4101446 243.194086,23.4589179 C243.404171,24.2215267 243.614257,24.9841355 243.824343,25.7362256 C245.133338,30.4381034 246.323823,34.6771566 246.711673,36.0393337 C247.35916,38.3467214 249.156506,40.1787039 251.489774,40.9095115 C253.973094,41.6721203 256.709594,41.0567738 259.031309,39.2212533 C261.029816,37.6434419 263.426947,32.967861 266.152673,25.3838477 C267.946481,20.3927045 269.923441,13.8763436 269.993469,11.6411108 C269.996134,11.6148783 269.996134,11.5884528 269.993469,11.5622203 C270.072304,9.77012178 269.434913,8.01822017 268.215822,6.67626443 C266.502816,4.85126263 263.653193,3.93087268 259.731595,3.94139142 L259.693887,3.94139142 Z M246.436946,20.2191452 C249.884505,16.1852075 252.669486,13.0453629 254.996588,10.878502 C257.81389,8.24881642 259.155206,7.85962295 259.704661,7.85962295 C265.845625,7.85962295 265.926427,10.2947118 265.93183,11.5411828 C265.937201,12.7876537 264.547404,17.8892438 262.311877,24.1058205 C259.559217,31.7739837 257.42604,35.4134686 256.440254,36.2023742 C255.1959,37.1963954 253.859971,37.5487733 252.669486,37.1858767 C251.630838,36.8508061 250.836259,36.0255488 250.557856,34.9927189 C250.116138,33.47802 248.645538,28.1976113 247.137231,22.7699402 C246.905598,21.9074034 246.668579,21.0606446 246.436946,20.2191452 Z M239.762687,11.1835455 C240.080509,12.3300885 240.576096,14.1287934 241.168645,16.2535794 C241.421825,17.1687099 241.707326,18.146953 241.976667,19.1620116 C238.836156,22.2387438 236.756847,23.10654 235.970373,23.10654 C235.183898,23.10654 233.104589,22.2387438 229.964079,19.1620116 C230.244193,18.146953 230.50276,17.1687099 230.7721,16.2535794 C231.364649,14.1498309 231.849462,12.3300885 232.178058,11.1835455 L232.221152,11.0257644 C232.425851,10.2999712 232.544361,9.86870274 232.549748,9.83714651 C232.986315,7.96420077 232.930724,6.01388577 232.388143,4.16754438 L234.752953,4.16754438 C235.065388,4.16754438 237.537934,4.41473482 238.432145,6.32388656 L239.509507,10.2736743 L239.762687,11.1835455 Z" id="Shape" fill="url(#linearGradient-1)"></path>
                <path d="M243.07196,19.2294776 C243.07196,19.2294776 244.233251,17.8063734 244.779156,17.0409588 C245.066998,16.6610864 246,15.3967349 246,15.3967349 L245.081886,11.2294776 L242,14.744715 C242.233251,15.6915612 242.843672,18.2429432 243.07196,19.2294776 Z" id="Path" fill="url(#linearGradient-2)" opacity="0.35" style="mix-blend-mode: multiply;"></path>
                <path d="M247.248322,20.2294776 C247.248322,20.2294776 246.362416,21.1793046 245.610738,21.885187 C245.315436,22.1602735 244,23.4422804 244,23.4422804 C244.273826,24.4336299 244.536913,25.2900312 244.778523,26.2294776 L248,22.8402043 C247.726174,21.9111385 247.50604,21.1637337 247.248322,20.2294776 Z" id="Path" fill="url(#linearGradient-3)" opacity="0.35" style="mix-blend-mode: multiply;"></path>
                <path d="M225,22.9744633 L228.359566,26.2294776 C228.571235,25.4042627 228.788331,24.5733172 229,23.7366409 L227.339213,22.0174432 C226.763908,21.4443773 225.710991,20.2294776 225.710991,20.2294776 C225.472185,21.1463831 225.238806,22.0346352 225,22.9744633 Z" id="Path" fill="url(#linearGradient-4)" opacity="0.4" style="mix-blend-mode: multiply;"></path>
                <path d="M231,15.3806305 L227.723347,12.2294776 C227.512821,12.9673085 227.242915,13.9049686 227,14.7657714 C227,14.7657714 227.59919,15.4677355 228.446694,16.395148 C229.612686,17.6658568 230.184885,18.2294776 230.184885,18.2294776 L231,15.3806305 Z" id="Path" fill="url(#linearGradient-5)" opacity="0.4" style="mix-blend-mode: multiply;"></path>
                <path d="M6.72930355,34.1847492 L3.23390276,34.1847492 L2.4717477,36.2294776 L1,36.2294776 L4.19579501,28.2294776 L5.80420499,28.2294776 L9,36.2294776 L7.48094612,36.2294776 L6.72930355,34.1847492 Z M3.717477,32.9528003 L6.20367937,32.9528003 L4.96846255,29.6914584 L3.717477,32.9528003 Z" id="Shape" fill="#161038"></path>
                <path d="M13.0251595,28.2294776 C14.7278759,28.2294776 15.7211271,29.1314635 15.7211271,30.381944 C15.7437475,31.1530888 15.2147338,31.8499573 14.4100355,32.109042 C15.3666761,32.3330094 16.0255853,33.1234632 15.9992374,34.0155122 C15.9992374,35.3018671 14.8981475,36.2294776 13.2465126,36.2294776 L10,36.2294776 L10,28.2294776 L13.0251595,28.2294776 Z M12.8378607,31.6375494 C13.1934538,31.6806585 13.5522611,31.5822718 13.821259,31.3678966 C14.0902568,31.1535215 14.2429545,30.8442696 14.2397638,30.5203168 C14.2397638,29.8438274 13.7175975,29.4030843 12.8038063,29.4030843 L11.4586604,29.4030843 L11.4586604,31.6375494 L12.8378607,31.6375494 Z M13.0024566,35.1019952 C13.9048963,35.1019952 14.4894956,34.6612521 14.4894956,33.9540132 C14.5009783,33.6175307 14.3483153,33.293455 14.0719056,33.0675456 C13.7954959,32.8416363 13.4232001,32.7366637 13.0535381,32.7804065 L11.4586604,32.7804065 L11.4586604,35.1019952 L13.0024566,35.1019952 Z" id="Shape" fill="#161038"></path>
                <path d="M18.0059554,33.3290902 L18.0059554,28.2294776 L19.3539723,28.2294776 L19.3539723,33.243846 C19.3539723,34.347007 19.9765297,34.9537456 20.99526,34.9537456 C22.0139904,34.9537456 22.6416929,34.347007 22.6416929,33.243846 L22.6416929,28.2294776 L24,28.2294776 L24,33.3290902 C24,35.2144927 22.6879988,36.2223808 20.99526,36.2223808 C20.1896412,36.2791461 19.3982403,35.9933248 18.8251254,35.4386179 C18.2520105,34.883911 17.953277,34.1146122 18.0059554,33.3290902 L18.0059554,33.3290902 Z" id="Path" fill="#161038"></path>
                <path d="M29,36.2294776 L29,28.2294776 L31.9512938,28.2294776 C34.2153729,28.2294776 36,29.6710112 36,32.2371453 C36,34.8032795 34.1887367,36.2294776 31.9512938,36.2294776 L29,36.2294776 Z M31.8873668,34.9924169 C33.3310502,34.9924169 34.5243531,34.10296 34.5243531,32.2575926 C34.5243531,30.4122252 33.3417047,29.4869856 31.8980213,29.4869856 L30.4117199,29.4869856 L30.4117199,34.9719696 L31.8873668,34.9924169 Z" id="Shape" fill="#161038"></path>
                <polygon id="Path" fill="#161038" points="43.5213608 36.2294776 43.5213608 32.7994457 39.4620253 32.7994457 39.4620253 36.2294776 38 36.2294776 38 28.2294776 39.4620253 28.2294776 39.4620253 31.5266022 43.5213608 31.5266022 43.5213608 28.2294776 45 28.2294776 45 36.2294776"></polygon>
                <path d="M51.6857331,34.1795096 L48.2143327,34.1795096 L47.477975,36.2294776 L46,36.2294776 L49.1926364,28.2294776 L50.8021039,28.2294776 L54,36.2294776 L52.4852071,36.2294776 L51.6857331,34.1795096 Z M48.6982249,32.9239043 L51.2018409,32.9239043 L49.9500329,29.6542054 L48.6982249,32.9239043 Z" id="Shape" fill="#161038"></path>
                <path d="M59.0474185,28.2294776 C60.7372993,28.2294776 61.7286961,29.1314635 61.7286961,30.381944 C61.751146,31.1530888 61.2261202,31.8499573 60.4274878,32.109042 C61.3759068,32.3333368 62.027967,33.1243409 61.999077,34.0155122 C61.999077,35.3018671 60.9119203,36.2294776 59.2727359,36.2294776 L56,36.2294776 L56,28.2294776 L59.0474185,28.2294776 Z M58.8502657,31.6119248 C59.2031783,31.6550339 59.5592808,31.5566472 59.8262509,31.342272 C60.093221,31.1278969 60.2447675,30.818645 60.2416009,30.4946922 C60.2416009,29.8182028 59.7177379,29.3774597 58.8108352,29.3774597 L57.498361,29.3774597 L57.498361,31.6375494 L58.8502657,31.6119248 Z M59.0136209,35.0763706 C59.9036248,35.0763706 60.4894501,34.6356275 60.4894501,33.9283886 C60.4991431,33.591437 60.3463046,33.2674964 60.0711451,33.0417928 C59.7959855,32.8160891 59.426057,32.7112223 59.0586843,32.7547819 L57.498361,32.7547819 L57.498361,35.0763706 L59.0136209,35.0763706 Z" id="Shape" fill="#161038"></path>
                <polygon id="Path" fill="#161038" points="63 36.2294776 63 28.2294776 65 28.2294776 65 36.2294776"></polygon>
                <path d="M71,36.2294776 L71,28.2294776 L73.9504573,28.2294776 C76.2179878,28.2294776 78,29.6710112 78,32.2371453 C78,34.8032795 76.191311,36.2294776 73.9397866,36.2294776 L71,36.2294776 Z M73.8917683,34.9924169 C75.3376524,34.9924169 76.5327744,34.10296 76.5327744,32.2575926 C76.5327744,30.4122252 75.3483232,29.4869856 73.902439,29.4869856 L72.4085366,29.4869856 L72.4085366,34.9719696 L73.8917683,34.9924169 Z" id="Shape" fill="#161038"></path>
                <polygon id="Path" fill="#161038" points="79 36.2294776 79 28.2294776 81 28.2294776 81 36.2294776"></polygon>
                <path d="M88.8163959,36.0722335 L88.7087956,35.0924872 C88.1284553,35.8538191 87.1528777,36.2831041 86.1371467,36.2240942 C83.9474792,36.2240942 82.0052926,34.7544747 82.0052926,32.231628 C81.9472502,31.1817507 82.3686377,30.1567602 83.1695541,29.3996577 C83.9704704,28.6425553 85.0795974,28.2207577 86.2339871,28.2342632 C87.9202866,28.1533907 89.4595613,29.1044587 90,30.5611606 L88.6657554,31.0265401 C88.3496248,30.0432079 87.3366047,29.3837748 86.212467,29.4295537 C84.8513223,29.4295537 83.4256174,30.3162241 83.4256174,32.2120331 C83.4256174,34.1078422 84.754482,35.0190062 86.201707,35.0190062 C87.3760542,35.1192768 88.4318035,34.366578 88.6065752,33.3044502 L85.8304857,33.3044502 L85.8304857,32.177742 L89.9408198,32.177742 L89.9408198,36.0722335 L88.8163959,36.0722335 Z" id="Path" fill="#161038"></path>
                <polygon id="Path" fill="#161038" points="92 36.2294776 92 28.2294776 94 28.2294776 94 36.2294776"></polygon>
                <polygon id="Path" fill="#161038" points="99.2142299 29.4972092 99.2142299 36.2294776 97.7693511 36.2294776 97.7693511 29.4972092 95 29.4972092 95 28.2294776 102 28.2294776 102 29.4972092"></polygon>
                <path d="M107.700787,34.1795096 L104.225722,34.1795096 L103.469816,36.2294776 L102,36.2294776 L105.191601,28.2294776 L106.7979,28.2294776 L110,36.2294776 L108.48294,36.2294776 L107.700787,34.1795096 Z M104.71916,32.9239043 L107.212598,32.9239043 L105.968504,29.6542054 L104.71916,32.9239043 Z" id="Shape" fill="#161038"></path>
                <polygon id="Path" fill="#161038" points="111 36.2294776 111 28.2294776 112.346939 28.2294776 112.346939 34.9259632 116 34.9259632 116 36.2294776"></polygon>
                <path d="M125.693316,34.1795096 L122.23329,34.1795096 L121.46789,36.2294776 L120,36.2294776 L123.187418,28.2294776 L124.791612,28.2294776 L128,36.2294776 L126.484928,36.2294776 L125.693316,34.1795096 Z M122.715596,32.9239043 L125.205767,32.9239043 L123.963303,29.6542054 L122.715596,32.9239043 Z" id="Shape" fill="#161038"></path>
                <path d="M129,33.3336181 L129,28.2294776 L130.350515,28.2294776 L130.350515,33.2482982 C130.350515,34.3524387 130.974227,34.959716 131.994845,34.959716 C133.015464,34.959716 133.639175,34.3624764 133.639175,33.2583358 L133.639175,28.2395153 L135,28.2395153 L135,33.3336181 C135,35.2206947 133.685567,36.2294776 131.994845,36.2294776 C130.304124,36.2294776 129,35.2206947 129,33.3336181 Z" id="Path" fill="#161038"></path>
                <polygon id="Path" fill="#161038" points="141.244094 29.4972092 141.244094 36.2294776 139.788976 36.2294776 139.788976 29.4972092 137 29.4972092 137 28.2294776 144 28.2294776 144 29.4972092"></polygon>
                <polygon id="Path" fill="#161038" points="151.525732 36.2294776 151.525732 32.7994457 147.463183 32.7994457 147.463183 36.2294776 146 36.2294776 146 28.2294776 147.463183 28.2294776 147.463183 31.5266022 151.525732 31.5266022 151.525732 28.2294776 153 28.2294776 153 36.2294776"></polygon>
                <path d="M158.967439,28.2304412 C160.054091,28.2067753 161.102627,28.6199098 161.865456,29.3722906 C162.628285,30.1246714 163.037783,31.1496008 162.997254,32.2050604 C163.049157,33.6255875 162.298875,34.9603358 161.040813,35.6855597 C159.78275,36.4107836 158.217613,36.4107836 156.959551,35.6855597 C155.701488,34.9603358 154.951206,33.6255875 155.00311,32.2050604 C154.96035,31.160024 155.360066,30.143595 156.109129,29.3925881 C156.858191,28.6415812 157.891186,28.2215807 158.967439,28.2304412 Z M158.967439,34.9657564 C160.302315,34.9657564 161.612005,34.0504193 161.612005,32.2050604 C161.612005,30.3597015 160.302315,29.4443643 158.967439,29.4443643 C157.632563,29.4443643 156.343023,30.3645963 156.343023,32.2050604 C156.343023,34.0455244 157.632563,34.9755461 158.967439,34.9755461 L158.967439,34.9657564 Z" id="Shape" fill="#161038"></path>
                <path d="M167.508709,33.0567939 L166.439061,33.0567939 L166.439061,36.2294776 L165,36.2294776 L165,28.2339058 L168.308187,28.2339058 C169.019814,28.1933926 169.71698,28.4322909 170.228932,28.8920886 C170.740884,29.3518863 171.020337,29.9901159 170.998846,30.6504588 C171.033759,31.7445103 170.215065,32.7035468 169.058043,32.9239601 L170.965764,36.2294776 L169.31167,36.2294776 L167.508709,33.0567939 Z M168.004937,31.8663988 C168.516431,31.9278422 169.020092,31.709468 169.29693,31.3062239 C169.573769,30.9029798 169.573769,30.3877199 169.29693,29.9844758 C169.020092,29.5812317 168.516431,29.3628575 168.004937,29.4243009 L166.439061,29.4243009 L166.439061,31.8663988 L168.004937,31.8663988 Z" id="Shape" fill="#161038"></path>
                <polygon id="Path" fill="#161038" points="172 36.2294776 172 28.2294776 174 28.2294776 174 36.2294776"></polygon>
                <polygon id="Path" fill="#161038" points="179.216406 29.4972092 179.216406 36.2294776 177.772656 36.2294776 177.772656 29.4972092 175 29.4972092 175 28.2294776 182 28.2294776 182 29.4972092"></polygon>
                <polygon id="Path" fill="#161038" points="182 28.2294776 183.835777 28.2294776 186.029326 31.5726086 188.240469 28.2294776 190 28.2294776 186.768328 32.8301166 186.768328 36.2294776 185.219941 36.2294776 185.219941 32.8301166"></polygon>
                <path d="M2.99674292,11.2289514 C3.25161404,11.2372756 3.50101773,11.1466155 3.70124957,10.9728579 C3.90366115,10.7878426 4.01404309,10.5078907 3.99856431,10.2188049 C4.00536489,9.94524673 3.89824742,9.68325641 3.70771294,9.50743414 C3.51059009,9.32034327 3.25691833,9.22135552 2.99674292,9.22999954 C2.73676411,9.22272721 2.4835281,9.32154493 2.28577289,9.50743414 C2.09917536,9.68588685 1.99485798,9.94682729 2.00138489,10.2188049 C1.98638342,10.5062863 2.0939087,10.7850533 2.29223626,10.9728579 C2.49349782,11.1444969 2.74219105,11.2348988 2.99674292,11.2289514 L2.99674292,11.2289514 Z" id="Path" fill="#161038"></path>
                <path d="M5.00117544,11.2290875 C5.25701869,11.2362066 5.50716785,11.145691 5.70881505,10.9730307 C5.8946649,10.7808729 6,10.513282 6,10.2333109 C6,9.95333983 5.8946649,9.68574888 5.70881505,9.49359112 C5.51090261,9.31272639 5.25868677,9.2189279 5.00117544,9.23042158 C4.74004051,9.2231503 4.48567835,9.32195388 4.28704373,9.5078165 C4.09729036,9.68435498 3.99199265,9.94654399 4.00139104,10.2190855 C3.98632287,10.5065258 4.09432632,10.7852529 4.29353584,10.9730307 C4.49569241,11.1446451 4.74549158,11.2350341 5.00117544,11.2290875 L5.00117544,11.2290875 Z" id="Path" fill="#161038"></path>
                <path d="M18.9967128,18.2303088 C18.7351747,18.2220346 18.4806544,18.3259728 18.2849382,18.5209755 C18.1017381,18.7062235 17.9980741,18.9708058 18.0002284,19.2476423 C17.9943713,19.5268675 18.101433,19.7940494 18.2914089,19.9743091 C18.493753,20.1470427 18.7426484,20.2367946 18.9967128,20.2286424 C19.2510781,20.2392108 19.5006804,20.1492039 19.7020167,19.9743091 C19.8967746,19.7975227 20.0068646,19.5287559 19.9996679,19.2476423 C20.0018959,18.9692572 19.8954966,18.7037283 19.7084873,18.5209755 C19.5141746,18.3233422 19.2586798,18.219006 18.9967128,18.2303088 Z" id="Path" fill="#161038"></path>
                <path d="M20.9967128,18.2304753 C20.7351747,18.2222017 20.4806544,18.3261313 20.2849382,18.5211178 C20.1017381,18.7063503 19.9980741,18.9709106 20.0002284,19.247724 C19.9943713,19.526926 20.101433,19.7940856 20.2914089,19.9743303 C20.493753,20.1470496 20.7426484,20.236794 20.9967128,20.2286425 C21.2510781,20.23921 21.5006804,20.1492106 21.7020167,19.9743303 C21.8967746,19.7975586 22.0068646,19.5288142 21.9996679,19.247724 C22.0018221,18.9709106 21.8981581,18.7063503 21.714958,18.5211178 C21.51866,18.322385 21.2607799,18.2180322 20.9967128,18.2304753 L20.9967128,18.2304753 Z" id="Path" fill="#161038"></path>
                <path d="M51.0095614,11.229147 C51.2606555,11.2315268 51.5048257,11.1389077 51.7009445,10.9668901 C51.9050387,10.7839807 52.0157952,10.5040135 51.9981746,10.2155594 C52.0020271,9.94514801 51.8982136,9.68633191 51.7138675,9.50675683 C51.5154719,9.31803519 51.2590427,9.21920278 50.9966383,9.23032384 C50.7367335,9.22307777 50.4835695,9.32153872 50.2858706,9.50675683 C50.1015245,9.68633191 49.997711,9.94514801 50.0015635,10.2155594 C49.9855511,10.5021953 50.0932297,10.780431 50.2923321,10.9668901 C50.4963857,11.143033 50.7499741,11.2357583 51.0095614,11.229147 L51.0095614,11.229147 Z" id="Path" fill="#161038"></path>
                <path d="M48.754068,12.0123236 C48.3421071,12.1376015 47.9586454,12.3515292 47.6273809,12.640886 C47.3180202,12.9129547 47.0688699,13.2544087 46.8977168,13.6408717 C46.7209367,14.0611036 46.6330206,14.517576 46.6401883,14.9779955 C46.6370442,15.2778372 46.6842864,15.5758602 46.7796829,15.8579829 C46.8673693,16.1186915 46.9922319,16.3634619 47.1498801,16.5836869 L37.224303,16.5836869 C37.2459972,16.4684563 37.262114,16.3521139 37.2725896,16.2351204 C37.2809229,16.1095646 37.2809229,15.9835388 37.2725896,15.8579829 C37.2833899,15.3931869 37.206774,14.9307863 37.0472522,14.4980024 C36.8868976,14.0854858 36.6517043,13.7107163 36.3551444,13.395161 C36.0579653,13.086038 35.7084114,12.8397811 35.3250304,12.669457 C34.926896,12.4874263 34.497458,12.3959514 34.0642139,12.4008895 C33.637527,12.3978891 33.2151011,12.4913762 32.824858,12.6751713 C32.4474939,12.8499603 32.1050952,13.1001882 31.8162048,13.4123036 C31.5230756,13.7255049 31.2866378,14.0935483 31.1187318,14.4980024 C30.9521563,14.9272709 30.8682306,15.3878003 30.8719337,15.8522687 C30.8719337,15.9856002 30.8719337,16.1113127 30.8719337,16.2294062 C30.8806939,16.3473934 30.9004637,16.4641583 30.9309506,16.5779727 L20.6620022,16.5779727 L20.6620022,11.7951838 L19.170483,11.7951838 L19.170483,16.5836869 L5.36588302,16.5836869 L5.36588302,11.2294776 L3.84753798,11.2294776 L3.84753798,11.800898 L3.63829608,11.800898 C3.11579046,11.7913724 2.59543164,11.8744074 2.09849033,12.0466088 C1.68010528,12.1875436 1.29181539,12.4147047 0.955707668,12.7151707 C0.650942893,12.9864292 0.408662193,13.3285305 0.247504327,13.7151564 C0.0795307868,14.1158529 -0.00467830486,14.5506411 0.00070619327,14.9894239 C-0.00915754521,15.4721662 0.084420528,15.9509525 0.274330211,16.3894039 C0.446938351,16.7813022 0.704358331,17.12401 1.02545497,17.3893897 C1.3706563,17.6557375 1.76030771,17.8496626 2.17360281,17.9608101 C2.65212003,18.0908798 3.14446192,18.1542652 3.63829608,18.1493788 L31.7464575,18.1493788 C32.0422291,18.4814863 32.3957141,18.7492921 32.7873018,18.937939 C33.1880044,19.1327334 33.623752,19.2321823 34.0642139,19.2294217 C34.5127362,19.2319024 34.9568069,19.1345856 35.3679518,18.9436532 C35.7749399,18.7638523 36.1408841,18.4929758 36.4409872,18.1493788 L52,18.1493788 L52,11.7951838 L50.2133961,11.7951838 C49.7195494,11.7903285 49.2277569,11.8635045 48.754068,12.0123236 Z M3.84753798,16.5836878 L3.21981229,16.5836878 C3.003341,16.5838927 2.78808633,16.5492151 2.58135625,16.4808312 C2.38658327,16.4157998 2.2047137,16.3131383 2.04483856,16.1779784 C1.86888683,16.0465114 1.72082963,15.8771418 1.61025924,15.6808426 C1.51033237,15.4661819 1.46063298,15.2289657 1.46539947,14.9894239 C1.46216403,14.7505415 1.51568568,14.5146651 1.6209896,14.3037194 C1.72086176,14.1064468 1.86003033,13.9348212 2.02874303,13.8008695 C2.20292307,13.6638005 2.39678874,13.5576673 2.60281695,13.4865882 C2.8187905,13.406713 3.04494073,13.3623944 3.27346406,13.3551615 L3.84753798,13.3551615 L3.84753798,16.5836878 Z M35.6737669,16.5836869 C35.590514,16.8003716 35.4642255,16.995305 35.3035697,17.1551073 C35.1503604,17.3179643 34.9678823,17.4462346 34.767052,17.5322448 C34.5503235,17.6242137 34.3189686,17.6707785 34.0856746,17.6693857 C33.8558107,17.6713488 33.6278638,17.6247358 33.4150275,17.5322448 C33.215122,17.4392584 33.0331913,17.3074975 32.8785098,17.1436789 C32.7261637,16.9800143 32.6058078,16.7857938 32.5244081,16.5722585 C32.4375515,16.3435835 32.3937987,16.0989384 32.3956439,15.8522687 C32.3943361,15.6037979 32.4380567,15.3573925 32.5244081,15.1265648 C32.6093812,14.9164031 32.7273095,14.7231722 32.8731446,14.5551444 C33.1901193,14.204438 33.6286339,14.0081151 34.0856746,14.012295 C34.3264228,14.0110648 34.5651097,14.059579 34.7885127,14.1551501 C34.9889777,14.2470538 35.1710886,14.3789452 35.3250304,14.543716 C35.4782261,14.7078089 35.6002763,14.901824 35.6844973,15.1151364 C35.7719288,15.347624 35.8156767,15.5961248 35.8132615,15.8465545 C35.81392,16.094233 35.766425,16.3393743 35.6737669,16.5665443 L35.6737669,16.5836869 Z M50.4762898,16.5836869 L48.936484,16.5836869 C48.6934209,16.4082026 48.491496,16.1755457 48.3463146,15.9036966 C48.197302,15.6213268 48.1213894,15.3018668 48.1263423,14.9779955 C48.1238933,14.7398841 48.1754267,14.5046591 48.2765673,14.292291 C48.3721892,14.0986547 48.5035863,13.9276107 48.66286,13.7894411 C48.8221096,13.6519188 49.004066,13.5472703 49.1993777,13.480874 C49.4083947,13.4035781 49.6273779,13.3611728 49.8485641,13.3551615 L50.4762898,13.3551615 L50.4762898,16.5836869 Z" id="Shape" fill="#161038"></path>
                <path d="M49.0032303,11.2292314 C49.2565877,11.2338498 49.5034329,11.1410488 49.7009836,10.9669122 C49.9050512,10.7839595 50.0157931,10.5039259 49.9981749,10.2154033 C50.0021771,9.94339169 49.8956203,9.6835441 49.7074443,9.50643262 C49.2958401,9.13715927 48.7041599,9.13715927 48.2925557,9.50643262 C48.1043797,9.6835441 47.9978229,9.94339169 48.0018251,10.2154033 C47.9842069,10.5039259 48.0949488,10.7839595 48.2990164,10.9669122 C48.49855,11.142086 48.7477521,11.2349136 49.0032303,11.2292314 Z" id="Path" fill="#161038"></path>
                <path d="M65.9582265,16.3725538 L56.8728472,16.3725538 L56.8728472,11.8684922 L55.4466838,11.8684922 L55.4466838,17.6732494 C55.4691336,17.9496392 55.4119493,18.2267311 55.2825211,18.4687161 C55.1356608,18.6495616 54.9126762,18.7422042 54.6874313,18.7159558 C54.5763134,18.7231713 54.4648293,18.7213743 54.3539758,18.710581 C54.2348539,18.6917354 54.1167125,18.6666213 54,18.6353342 L54.1026017,20.1241469 C54.2076318,20.1595063 54.3159863,20.1829316 54.425797,20.194019 C54.5583056,20.2139024 54.6920964,20.2228878 54.8259436,20.2208928 C55.3709957,20.2740995 55.9114352,20.0781766 56.3085379,19.6834153 C56.6667716,19.1642265 56.8475045,18.53368 56.8215464,17.8936152 L67.3382191,17.8936152 L67.3382191,10.7182903 L68,10.7182903 L68,9.22947761 L65.9171858,9.22947761 L65.9582265,16.3725538 Z" id="Path" fill="#161038"></path>
                <rect id="Rectangle" fill="#161038" x="70" y="9.22947761" width="2" height="8"></rect>
                <path d="M77.29853,16.9817231 C77.7171434,17.3120625 78.2838796,17.3120625 78.702493,16.9817231 C78.9032623,16.7986354 79.012805,16.5233851 78.9980641,16.2390349 C79.0158074,15.9588823 78.9108115,15.686066 78.7148084,15.5030375 C78.2977679,15.138291 77.7032551,15.138291 77.2862146,15.5030375 C77.0972768,15.6802056 76.9929947,15.9413139 77.0029589,16.2122713 C76.9801282,16.5057785 77.0904385,16.7929461 77.29853,16.9817231 Z" id="Path" fill="#161038"></path>
                <path d="M77.297225,14.9783627 C77.7163116,15.3131826 78.2836884,15.3131826 78.702775,14.9783627 C78.9037713,14.7927918 79.0134378,14.5138081 78.9986803,14.2256012 C79.0086557,13.9509687 78.9042557,13.6863189 78.7151044,13.5067479 C78.2975924,13.1370542 77.7024076,13.1370542 77.2848956,13.5067479 C77.0957443,13.6863189 76.9913443,13.9509687 77.0013197,14.2256012 C76.9865622,14.5138081 77.0962287,14.7927918 77.297225,14.9783627 L77.297225,14.9783627 Z" id="Path" fill="#161038"></path>
                <path d="M99.0075219,18.2299404 C98.7458637,18.2218185 98.4908019,18.3208462 98.2919055,18.5077782 C98.1010685,18.6865087 97.9944122,18.9507371 98.0019575,19.2260905 C97.9834866,19.5162657 98.0966078,19.7977511 98.3042437,19.9782855 C98.5054755,20.1481516 98.7538314,20.2366951 99.0075219,20.2290172 C99.2609239,20.2345264 99.5086423,20.1462102 99.7108,19.9782855 C99.8953552,19.7874769 100,19.5214311 100,19.2430318 C100,18.9646326 99.8953552,18.6985868 99.7108,18.5077782 C99.515096,18.3239937 99.2649595,18.2251745 99.0075219,18.2299404 L99.0075219,18.2299404 Z" id="Path" fill="#161038"></path>
                <path d="M116.392494,13.2154539 C116.136967,12.9356376 115.817926,12.7244542 115.463567,12.6005671 C115.061349,12.4680678 114.640496,12.4042845 114.217961,12.4117861 L111.051164,12.4117861 L111.051164,9.22947761 L109.589159,9.22947761 L109.589159,16.3977624 L100.220718,16.3977624 L100.220718,11.8778056 L98.7534357,11.8778056 L98.7534357,16.3977624 L85.4317768,16.3977624 L85.4317768,11.8778056 L83.4578067,11.8778056 C83.0804612,11.8748664 82.7043392,11.9220062 82.3388718,12.0180429 C82.0195913,12.0968416 81.7195723,12.2418792 81.4574466,12.4441486 C81.1517834,12.6919396 80.9151751,13.0174359 80.7713073,13.3880537 C80.6213731,13.8150948 80.5498025,14.2667351 80.5601875,14.7203082 L80.5601875,17.7354107 L78.5176035,17.7354107 C78.1921792,17.7351593 77.8679408,17.695325 77.5517305,17.6167484 C77.213486,17.5217729 76.8887946,17.382158 76.5858574,17.2014301 L76,18.5121098 C76.2375098,18.6469533 76.4539076,18.7656157 76.6597494,18.8573093 C76.866219,18.9525546 77.082093,19.0248852 77.3036647,19.0730591 C77.546675,19.1316798 77.7936924,19.1713481 78.042584,19.1917214 C78.3117617,19.2186901 78.6284414,19.2294776 78.9926231,19.2294776 L82.0221921,19.2294776 L82.0221921,14.6232209 C82.0259256,14.4384688 82.0616647,14.2558544 82.127752,14.0838465 C82.2361082,13.7685729 82.4916946,13.5296535 82.8086133,13.4473848 C82.9692403,13.4071633 83.1340901,13.3872373 83.2994668,13.3880537 L83.9697722,13.3880537 L83.9697722,17.9080105 L116.99975,17.9080105 L116.99975,15.3621637 C117.003766,14.9501023 116.959464,14.5390124 116.867514,14.137784 C116.791917,13.792768 116.627986,13.4744689 116.392494,13.2154539 L116.392494,13.2154539 Z M115.537459,16.3977624 L111.030052,16.3977624 L111.030052,13.8896718 L114.365744,13.8896718 C114.548225,13.8876319 114.72875,13.9282184 114.893544,14.0083341 C115.039383,14.0784607 115.167572,14.1817846 115.268281,14.3103838 C115.367375,14.4335186 115.439378,14.5770041 115.479401,14.7310957 C115.526853,14.9067211 115.54995,15.0882835 115.548015,15.2704701 L115.537459,16.3977624 Z" id="Shape" fill="#161038"></path>
                <path d="M112.292118,11.9715668 C112.489532,12.142517 112.732906,12.2333717 112.982422,12.2292668 C113.232088,12.2344618 113.475776,12.1434896 113.672726,11.9715668 C113.883604,11.7973035 114.005584,11.5190234 113.999712,11.2255931 C114.006238,10.9502285 113.90171,10.6862087 113.715113,10.5067456 C113.30501,10.1370549 112.720387,10.1370549 112.310284,10.5067456 C112.113918,10.6802478 111.999974,10.9454781 112.001464,11.2255931 C111.985976,11.5120543 112.094064,11.7894641 112.292118,11.9715668 L112.292118,11.9715668 Z" id="Path" fill="#161038"></path>
                <path d="M134.007522,18.2300948 C133.745676,18.220653 133.490192,18.319837 133.291906,18.5079111 C133.101068,18.6866278 132.994412,18.9508358 133.001958,19.226168 C132.983487,19.5163207 133.096608,19.7977844 133.304244,19.9783049 C133.505476,20.1481579 133.753831,20.2366945 134.007522,20.2290172 C134.260924,20.234526 134.508642,20.1462166 134.7108,19.9783049 C134.895355,19.787511 135,19.5214858 135,19.243108 C135,18.9647302 134.895355,18.698705 134.7108,18.5079111 C134.514522,18.3252285 134.264771,18.2265693 134.007522,18.2300948 L134.007522,18.2300948 Z" id="Path" fill="#161038"></path>
                <path d="M134,12.2297233 L132.5522,12.2297233 L132.5522,16.5690607 L123.144114,16.5690607 L123.144114,12.2297233 L121.508152,12.2297233 C121.024928,12.2248344 120.543773,12.2929328 120.081259,12.4316734 C119.672812,12.5472301 119.291083,12.7407209 118.957516,13.0012761 C118.661653,13.2459904 118.425746,13.554073 118.267589,13.9022841 C118.08515,14.2802591 117.993894,14.6950759 118.001027,15.1139846 C117.988934,15.5677771 118.083782,16.018115 118.278043,16.4292491 C118.451452,16.7856165 118.70976,17.0948427 119.03069,17.3302571 C119.371692,17.5734069 119.75677,17.7492156 120.164887,17.8480778 C120.619728,17.9589501 121.086807,18.0128789 121.555193,18.0086022 L121.722448,18.0086022 C121.707957,18.1606501 121.663567,18.3084179 121.59178,18.4435716 C121.529398,18.5486572 121.438971,18.6346618 121.330444,18.6921255 C121.21021,18.7546247 121.078837,18.7933189 120.943667,18.8060461 C120.769555,18.8147957 120.595108,18.8147957 120.420996,18.8060461 C120.177487,18.8057186 119.934445,18.7849312 119.694483,18.7439076 C119.428545,18.6978473 119.166472,18.6320718 118.910475,18.5471357 L119.01501,19.9970337 L119.438373,20.1109542 C119.563815,20.1109542 119.678802,20.1627363 119.79379,20.1782709 C119.908778,20.1938055 120.023766,20.2145183 120.14398,20.2248748 C120.264194,20.2352312 120.384409,20.2248748 120.52553,20.2248748 C120.92542,20.2345205 121.324269,20.1803188 121.706768,20.0643503 C122.002161,19.9695663 122.273236,19.8123179 122.501228,19.6034899 C122.706948,19.4148044 122.867644,19.1830738 122.971632,18.9251448 C123.080945,18.6285969 123.147799,18.3183436 123.170248,18.003424 L134,18.003424 L134,12.2297233 Z M121.732901,16.5690607 L121.121376,16.5690607 C120.898381,16.5708398 120.676382,16.53942 120.46281,16.475853 C120.272135,16.4191419 120.094554,16.325897 119.940138,16.201408 C119.787986,16.0772272 119.664925,15.9217372 119.579495,15.7457258 C119.492387,15.5465096 119.449603,15.331045 119.454054,15.1139846 C119.450502,14.9069618 119.499,14.7023167 119.595175,14.5184908 C119.684063,14.3417376 119.810688,14.1862506 119.966272,14.0628085 C120.12065,13.9333562 120.29785,13.8332893 120.488943,13.7676508 C120.690996,13.6998062 120.902808,13.6648319 121.116149,13.6640866 L121.727674,13.6640866 L121.732901,16.5690607 Z" id="Shape" fill="#161038"></path>
                <rect id="Rectangle" fill="#161038" x="136" y="11.2294776" width="2" height="8"></rect>
                <path d="M137.308982,8.91372649 C137.477974,8.79664035 137.698181,8.74097914 137.91862,8.75962951 L138.55003,8.75962951 L138.55003,8.2321437 L137.824271,8.2321437 C137.347255,8.20988219 136.876205,8.32759732 136.496133,8.56404488 C136.133433,8.85982594 135.954592,9.27399015 136.009874,9.69013819 L136.009874,10.2294776 L139,10.2294776 L139,9.3523102 L137.163831,9.3523102 C137.145594,9.19658579 137.197169,9.04074723 137.308982,8.91372649 Z" id="Path" fill="#161038"></path>
                <path d="M147.996985,11.2290874 C148.251758,11.2362095 148.50086,11.145655 148.701663,10.9729204 C148.901624,10.7858001 149.011464,10.5072114 148.99905,10.2186511 C149.005579,9.94659543 148.901236,9.68558012 148.714593,9.50707621 C148.297704,9.13694474 147.702731,9.13694474 147.285842,9.50707621 C147.096883,9.6836906 146.992026,9.94599234 147.001385,10.2186511 C146.98638,10.5062149 147.093932,10.7850619 147.292307,10.9729204 C147.493111,11.145655 147.742213,11.2362095 147.996985,11.2290874 Z" id="Path" fill="#161038"></path>
                <path d="M143.996985,11.2290872 C144.251758,11.2362123 144.50086,11.1456196 144.701663,10.9728123 C144.901624,10.7856131 145.011464,10.5069069 144.99905,10.2182249 C145.005853,9.94447292 144.898709,9.68229697 144.708128,9.50635011 C144.293303,9.13718678 143.700668,9.13718678 143.285842,9.50635011 C143.096883,9.68303895 142.992026,9.94545127 143.001385,10.2182249 C142.98638,10.50591 143.093932,10.7848746 143.292307,10.9728123 C143.493111,11.1456196 143.742213,11.2362123 143.996985,11.2290872 Z" id="Path" fill="#161038"></path>
                <path d="M162,10.4712955 L160.127243,10.4712955 L160.127243,10.1946615 C160.111348,10.0593129 160.168102,9.92479223 160.285021,9.82069329 C160.442647,9.72030274 160.648243,9.67220752 160.854394,9.68749913 L161.540386,9.68749913 L161.540386,9.2315653 L160.724056,9.2315653 C160.271226,9.21333819 159.824287,9.3149188 159.461832,9.51844501 C159.12406,9.77622055 158.958033,10.1331496 159.009077,10.4917869 L159.009077,11.2294776 L161.97256,11.2294776 L162,10.4712955 Z" id="Path" fill="#161038"></path>
                <path d="M170.996765,18.2303094 C170.73524,18.2220294 170.480733,18.3260395 170.285027,18.5211771 C170.101837,18.7065533 169.998178,18.9713186 170.000332,19.2483466 C169.993136,19.5296546 170.10322,19.7986073 170.297968,19.975516 C170.717497,20.3141315 171.282503,20.3141315 171.702032,19.975516 C171.89678,19.7986073 172.006864,19.5296546 171.999668,19.2483466 C172.001896,18.9697689 171.895502,18.7040563 171.708502,18.5211771 C171.5142,18.3234071 171.258718,18.2189988 170.996765,18.2303094 Z" id="Path" fill="#161038"></path>
                <path d="M173.996713,18.2304753 C173.735175,18.2222017 173.480654,18.3261313 173.284938,18.5211178 C173.101738,18.7063503 172.998074,18.9709106 173.000228,19.247724 C172.994371,19.526926 173.101433,19.7940856 173.291409,19.9743303 C173.493753,20.1470496 173.742648,20.236794 173.996713,20.2286425 C174.251078,20.23921 174.50068,20.1492106 174.702017,19.9743303 C174.896775,19.7975586 175.006865,19.5288142 174.999668,19.247724 C175.001822,18.9709106 174.898158,18.7063503 174.714958,18.5211178 C174.51866,18.322385 174.26078,18.2180322 173.996713,18.2304753 Z" id="Path" fill="#161038"></path>
                <path d="M189.781539,14.2985296 C189.64829,13.7873533 189.421286,13.3032845 189.111255,12.8691957 C188.949316,12.6389642 188.766985,12.4227035 188.566308,12.2228425 C188.34983,12.0175946 188.106119,11.8408951 187.841529,11.6973521 C187.558663,11.5459147 187.256342,11.4310704 186.942367,11.3557833 C186.586215,11.2686688 186.219887,11.2262789 185.852473,11.2296656 C185.298919,11.2316568 184.748467,11.3095073 184.217633,11.4608814 C183.678548,11.6100045 183.154973,11.8070318 182.653636,12.0494306 L183.165886,13.3684116 C183.49478,13.1976208 183.835235,13.0483939 184.184936,12.9217447 C184.590087,12.7720695 185.020814,12.6971998 185.454662,12.7010388 C185.97419,12.6854938 186.491039,12.7787189 186.969614,12.9742938 C187.363126,13.1495172 187.697434,13.4281773 187.93417,13.7782941 C188.125889,14.0597526 188.271122,14.3682118 188.364678,14.6926475 C188.456806,15.0536231 188.500758,15.4244654 188.495465,15.7961773 C188.495465,15.9433147 188.495465,16.0957069 188.495465,16.2638638 C188.483983,16.4400782 188.46215,16.6155232 188.430071,16.7893542 L187.449167,16.7893542 C187.475316,16.6730487 187.495323,16.5555379 187.509111,16.4372757 C187.517011,16.3007543 187.517011,16.1639144 187.509111,16.0273931 C187.514257,15.6927268 187.457038,15.359889 187.340178,15.044726 C187.240481,14.7652569 187.080789,14.5092023 186.871524,14.2932747 C186.670158,14.0832926 186.425018,13.9167471 186.152194,13.8045686 C185.867028,13.6914917 185.561359,13.634327 185.253032,13.6364117 C184.640497,13.6039823 184.043677,13.8303503 183.618192,14.2564904 C183.189653,14.7543603 182.976876,15.3924898 183.0242,16.0379029 C183.024264,16.17339 183.035195,16.3086693 183.056897,16.4425306 C183.056897,16.5739032 183.100492,16.694766 183.12229,16.7893542 L172.986281,16.7893542 L172.986281,12.3804896 L171.476779,12.3804896 L171.476779,16.7840993 L160.61599,16.7840993 L160.61599,12.3804896 L159.101039,12.3804896 L159.101039,16.7840993 L147.42283,16.7840993 L147.42283,11.8602541 L145.907878,11.8602541 L145.907878,12.3857445 L145.695349,12.3857445 C145.164608,12.3765924 144.636007,12.4529628 144.131352,12.6117054 C143.706394,12.741312 143.312004,12.9502143 142.970616,13.2265292 C142.660629,13.4789382 142.41301,13.7949156 142.245836,14.1513923 C142.079519,14.5210233 141.995957,14.920336 142.00061,15.323236 C141.991496,15.7665439 142.08456,16.2062739 142.273084,16.6106875 C142.452205,16.9702816 142.71519,17.285028 143.041459,17.5302957 C143.391534,17.7761338 143.787494,17.9545558 144.207645,18.0557862 C144.693611,18.1757531 145.193736,18.2340494 145.695349,18.229198 L189.596257,18.229198 C189.656108,18.0677172 189.705252,17.9027309 189.743393,17.735237 C189.792438,17.5513154 189.830584,17.3621388 189.868731,17.1677073 C189.906877,16.9732759 189.934124,16.7788444 189.961372,16.584413 C189.984212,16.4012726 189.996945,16.2170914 189.999771,16.032648 C190.004658,15.4479657 189.931392,14.8650957 189.781539,14.2985296 L189.781539,14.2985296 Z M145.907878,16.7841002 L145.248493,16.7841002 C145.028621,16.7842887 144.809984,16.7523983 144.600006,16.6895111 C144.402173,16.6297068 144.217446,16.5352971 144.055059,16.4110011 C143.896026,16.2847615 143.764521,16.1293746 143.668147,15.9538245 C143.566651,15.7564179 143.51617,15.5382688 143.521012,15.3179811 C143.517725,15.0982997 143.572088,14.8813827 143.679046,14.6873926 C143.780487,14.5059764 143.921842,14.3481459 144.093206,14.224961 C144.270122,14.0989095 144.467034,14.0013071 144.676299,13.9359413 C144.885244,13.8655593 145.103691,13.8248459 145.324785,13.8150785 L145.907878,13.8150785 L145.907878,16.7841002 Z M186.124947,16.4372757 C186.124947,16.5686483 186.09225,16.6895111 186.075901,16.7840993 L184.441061,16.7840993 C184.441061,16.6895111 184.441061,16.5686483 184.392016,16.4372757 C184.37413,16.292526 184.365032,16.146892 184.364769,16.0011186 C184.350385,15.7245304 184.426648,15.4505929 184.582747,15.2181379 C184.74216,15.019974 184.993587,14.9115614 185.253032,14.9291181 C185.511285,14.9178298 185.759854,15.0250102 185.923316,15.2181379 C186.092251,15.4454856 186.174985,15.7219324 186.157643,16.0011186 C186.158567,16.1488489 186.147636,16.2964267 186.124947,16.4425306 L186.124947,16.4372757 Z" id="Shape" fill="#161038"></path>
            </g>
        </g>
    </g>
</svg>